PathFileType	3	(X/Y/Z)	RCH0000005 BBF 05.c3d
DataRate	CameraRate	NumFrames	NumMarkers	Units	OrigDataRate	OrigDataStartFrame	OrigNumFrames
100.0	100.0	13	23	mm	100.0	50	453
Frame#	Time	T2			T10			MAN			LASI			RASI			LPSI			RPSI			LPAT			LKNE			LANK			LMED			LHEE			LTOE			RPAT			RKNE			RANK			RMED			RHEE			RTOE			LTHI			LTIB			RTHI			RTIB			
		X1	Y1	Z1	X2	Y2	Z2	X3	Y3	Z3	X4	Y4	Z4	X5	Y5	Z5	X6	Y6	Z6	X7	Y7	Z7	X8	Y8	Z8	X9	Y9	Z9	X10	Y10	Z10	X11	Y11	Z11	X12	Y12	Z12	X13	Y13	Z13	X14	Y14	Z14	X15	Y15	Z15	X16	Y16	Z16	X17	Y17	Z17	X18	Y18	Z18	X19	Y19	Z19	X20	Y20	Z20	X21	Y21	Z21	X22	Y22	Z22	X23	Y23	Z23	

50	0.490	-1415.25851	19.59855	1317.69379	-1436.75077	9.01620	1101.85999	-1271.65466	9.19344	1282.20194	-1300.13793	81.88648	914.33127	-1321.18426	-103.48332	906.04223	-1446.96317	39.98799	953.80851	-1461.26568	-45.53076	942.01318	-1259.16627	7.67239	517.48575	-1297.78987	87.79392	458.33296	-1402.93894	103.29702	81.51972	-1416.68993	19.73819	81.61403	-1466.49654	86.38633	66.92348	-1354.24725	59.01738	72.19090	-1274.98143	-79.40189	484.25482	-1364.87842	-121.43996	429.52053	-1669.17387	-70.52888	216.00911	-1642.75853	5.13072	208.12583	-1708.07451	-30.26270	251.27668	-1636.64153	-58.80618	165.17979	-1289.36368	166.26745	613.66328	-1336.59080	165.32122	285.23679	-1376.73477	-193.73781	600.59728	-1504.15764	-168.44555	370.82459	
51	0.500	-1403.00449	18.90228	1320.50956	-1424.67287	7.99921	1104.88102	-1259.57648	8.27248	1285.12965	-1289.23393	80.64989	916.48588	-1309.26494	-104.70628	909.48914	-1435.51429	37.97257	956.94573	-1449.55648	-47.71557	945.42989	-1255.35498	7.23497	517.81215	-1294.93925	87.56927	459.54468	-1401.94153	103.54512	83.35996	-1415.83195	20.07357	83.53496	-1465.62738	86.72146	69.45724	-1353.31697	59.25597	73.31182	-1253.25818	-82.74111	491.36188	-1341.44147	-125.39210	434.48749	-1640.64217	-73.25015	213.53075	-1612.99286	2.09559	205.30765	-1680.59760	-31.75804	246.51675	-1605.92235	-63.13612	164.18792	-1284.35829	165.73191	614.94477	-1334.81618	165.33908	286.92222	-1357.03125	-197.55329	605.71399	-1480.15849	-171.33084	372.74006	
52	0.510	-1390.73782	18.19352	1323.25444	-1412.71778	6.98272	1107.84058	-1247.51167	7.35592	1287.87569	-1278.51225	79.42487	918.54513	-1297.48409	-105.92636	912.84627	-1424.23939	35.94200	959.95381	-1437.99577	-49.90822	948.73510	-1251.45083	6.74507	518.23029	-1291.92317	87.26101	460.84137	-1400.91358	103.71703	85.30619	-1414.91595	20.32507	85.54111	-1464.71386	86.95538	72.12287	-1352.35696	59.42230	74.49916	-1232.10005	-85.82807	498.61943	-1318.45518	-129.24303	439.67876	-1611.35389	-76.27498	209.80796	-1582.52752	-1.21968	201.45840	-1652.41899	-33.66423	240.38290	-1574.38637	-67.63258	162.12833	-1279.24735	165.10678	616.28500	-1332.87377	165.25695	288.68934	-1337.38969	-201.31735	610.98149	-1456.30956	-174.24581	374.15059	
53	0.520	-1378.44400	17.46922	1325.88554	-1400.86555	5.95118	1110.69435	-1235.44160	6.44434	1290.39679	-1267.94798	78.20956	920.48271	-1285.81689	-107.15007	916.05830	-1413.11552	33.88999	962.79075	-1426.56006	-52.11194	951.87441	-1247.40751	6.21977	518.69248	-1288.70776	86.88160	462.17653	-1399.86171	103.81218	87.33017	-1413.94231	20.48774	87.60582	-1463.75992	87.08608	74.88664	-1351.37588	59.51395	75.73417	-1211.55454	-88.65559	505.89465	-1295.99353	-132.96120	444.97173	-1581.28843	-79.65601	204.90042	-1551.37338	-4.85222	196.64972	-1623.49479	-36.05951	232.94645	-1542.05074	-72.31416	159.06278	-1273.98243	164.39393	617.64161	-1330.76031	165.08292	290.49070	-1317.92038	-204.98205	616.28709	-1432.60031	-177.21401	375.00040	
54	0.530	-1366.11112	16.72409	1328.36291	-1389.09632	4.89012	1113.40080	-1223.35075	5.53481	1292.65512	-1257.51589	77.00382	922.27503	-1274.23854	-108.38314	919.07424	-1402.11863	31.81229	965.41817	-1415.22518	-54.32854	954.79845	-1243.19381	5.67340	519.15263	-1285.27442	86.44376	463.50581	-1398.79157	103.83377	89.40203	-1412.91296	20.56028	89.70078	-1462.76965	87.11847	77.71342	-1350.38166	59.53123	76.99586	-1191.66776	-91.22257	513.05359	-1274.12906	-136.51824	450.23919	-1550.41690	-83.43718	198.89912	-1519.53498	-8.83086	190.97684	-1593.77658	-39.00915	224.30359	-1508.91936	-77.19752	155.08669	-1268.53109	163.59772	618.97228	-1328.48024	164.82734	292.28119	-1298.75263	-208.50052	621.50894	-1409.00739	-180.26091	375.24519	
55	0.540	-1353.73010	15.95054	1330.65010	-1377.39054	3.78664	1115.92167	-1211.22680	4.62131	1294.61898	-1247.19021	75.80897	923.90137	-1262.72442	-109.63021	921.84830	-1391.22355	29.70691	967.80182	-1403.96644	-56.55814	957.46357	-1238.79220	5.11591	519.56843	-1281.61791	85.95870	464.78886	-1397.70866	103.78769	91.49192	-1411.83220	20.54469	91.79754	-1461.74802	87.06260	80.56839	-1349.38190	59.47676	78.26257	-1172.48459	-93.53474	519.96352	-1252.93140	-139.89142	455.35311	-1518.70667	-87.65078	191.92444	-1487.01457	-13.17422	184.55552	-1563.21499	-42.56316	214.57538	-1474.98872	-82.29437	150.32542	-1262.87671	162.72415	620.23657	-1326.04371	164.50125	294.02017	-1280.02709	-211.83081	626.51960	-1385.49821	-183.41234	374.85438	
56	0.550	-1341.29475	15.13889	1332.71460	-1365.72902	2.62979	1118.22232	-1199.06066	3.69504	1296.26322	-1236.94424	74.62743	925.34384	-1251.25023	-110.89487	924.34057	-1380.40405	27.57429	969.91198	-1392.75887	-58.79913	959.83236	-1234.19634	4.55264	519.90296	-1277.74397	85.43508	465.99064	-1396.61926	103.68129	93.57141	-1410.70731	20.44543	93.86913	-1460.70181	86.93112	83.41854	-1348.38411	59.35512	79.51351	-1154.04800	-95.60426	526.49595	-1232.46462	-143.06580	460.18884	-1486.12765	-92.31495	184.12381	-1453.81752	-17.88899	177.51888	-1531.76495	-46.75427	203.90759	-1440.25547	-87.60846	144.92944	-1257.01750	161.78049	621.39757	-1323.46547	164.11522	295.67310	-1261.88621	-214.93941	631.19076	-1362.03474	-186.69246	373.81341	
57	0.560	-1328.80171	14.27757	1334.52800	-1354.09310	1.41091	1120.27191	-1186.84627	2.74501	1297.56934	-1226.74992	73.46203	926.58721	-1239.79218	-112.17966	926.51745	-1369.63280	25.41734	971.72362	-1381.57751	-61.04802	961.87384	-1229.40772	3.98500	520.12543	-1273.66641	84.87877	467.08223	-1395.53122	103.52199	95.61486	-1409.54866	20.26857	95.89150	-1459.64032	86.73644	86.23407	-1347.39602	59.17241	80.73016	-1136.39735	-97.44831	532.53050	-1212.78350	-146.03568	464.62965	-1452.66024	-97.43146	175.66849	-1419.95889	-22.96830	170.01393	-1499.39276	-51.59607	192.46997	-1404.72541	-93.13277	139.06869	-1250.96457	160.77513	622.42323	-1320.76411	163.67857	297.21270	-1244.46359	-217.80431	635.39915	-1338.57763	-190.12139	372.12582	
58	0.570	-1316.25033	13.35350	1336.06613	-1342.46470	0.12379	1122.04344	-1174.58031	1.75856	1298.52543	-1216.57748	72.31527	927.61845	-1228.32721	-113.48635	928.35183	-1358.88145	23.24129	973.21636	-1370.39763	-63.29958	963.56334	-1224.43165	3.41182	520.21127	-1269.40374	84.29302	468.04094	-1394.45444	103.31612	97.60050	-1408.36928	20.02082	97.84489	-1458.57571	86.48822	88.98964	-1346.42564	58.93599	81.89738	-1119.56569	-99.08693	537.95936	-1193.92902	-148.80513	468.57147	-1418.30457	-102.98387	166.74929	-1385.47069	-28.39034	162.19774	-1466.08471	-57.08102	180.45445	-1368.42325	-98.84715	132.92578	-1244.73888	159.71755	623.28724	-1317.96131	163.19911	298.61947	-1227.87308	-220.41721	639.03307	-1315.09030	-193.71274	369.81484	
59	0.580	-1303.64243	12.35260	1337.30898	-1330.82649	-1.23514	1123.51370	-1162.26193	0.72191	1299.12570	-1206.39521	71.18850	928.42626	-1216.83327	-114.81619	929.82311	-1348.12090	21.05354	974.37431	-1359.19512	-65.54690	964.88220	-1219.27305	2.83064	520.14129	-1264.97533	83.67884	468.84981	-1393.40077	103.06822	99.51142	-1407.18400	19.70886	99.71472	-1457.52276	86.19169	91.66551	-1345.48113	58.65413	83.00417	-1103.57590	-100.54079	542.69232	-1175.92355	-151.38759	471.92759	-1383.09059	-108.93621	157.57085	-1350.40940	-34.11728	154.23305	-1431.85702	-63.17836	168.07186	-1331.40260	-104.71671	126.68831	-1238.36738	158.61815	623.96939	-1315.08059	162.68299	299.88172	-1212.19836	-222.78446	641.99919	-1291.54317	-197.47118	366.92431	
60	0.590	-1290.98200	11.26026	1338.24058	-1319.16198	-2.66686	1124.66320	-1149.89226	-0.37931	1299.37000	-1196.16938	70.08114	929.00052	-1205.28959	-116.17026	930.91712	-1337.32155	18.86325	975.18567	-1347.94680	-67.78163	965.81735	-1213.93216	2.23868	519.90046	-1260.39725	83.03548	469.49660	-1392.38315	102.78084	101.33636	-1406.00790	19.33887	101.49240	-1456.49782	85.84719	94.24861	-1344.57037	58.33590	84.04393	-1088.43611	-101.82918	546.66173	-1158.76609	-153.80449	474.63302	-1347.08820	-115.23200	148.34438	-1314.86315	-40.09459	146.28314	-1396.76610	-69.83201	155.54687	-1293.75538	-110.69111	120.54023	-1231.87822	157.48786	624.45528	-1312.14512	162.13495	300.99505	-1197.48384	-224.92686	644.22874	-1267.91769	-201.39039	363.51826	
61	0.600	-1278.27486	10.06201	1338.84878	-1307.45581	-4.16981	1125.47595	-1137.47411	-1.55947	1299.26299	-1185.86451	68.99004	929.33173	-1193.67697	-117.54976	931.62574	-1326.45378	16.68093	975.64228	-1336.63081	-69.99429	966.36068	-1208.40056	1.63331	519.47610	-1255.67782	82.36072	469.97220	-1391.41400	102.45503	103.07027	-1404.85430	18.91660	103.17570	-1455.51690	85.45093	96.73357	-1343.70003	57.99095	85.01439	-1074.13436	-102.96903	549.82699	-1142.42845	-156.08308	476.64808	-1310.41645	-121.79410	139.27896	-1278.95775	-46.25108	138.50612	-1360.91826	-76.95879	143.11093	-1255.61980	-116.70488	114.65261	-1225.29552	156.33735	624.73546	-1309.17459	161.55850	301.96137	-1183.72783	-226.87799	645.68256	-1244.21014	-205.45159	359.67919	
62	0.610	-1265.52827	8.74407	1339.12496	-1295.69390	-5.74005	1125.93935	-1125.01150	-2.83251	1298.81329	-1175.44385	67.90911	929.41051	-1181.97807	-118.95628	931.94662	-1315.48861	14.51791	975.73907	-1325.22701	-72.17469	966.50848	-1202.65776	1.01202	518.85604	-1250.81314	81.65105	470.26883	-1390.50281	102.09125	104.71479	-1403.73237	18.44768	104.76902	-1454.59292	84.99695	99.12369	-1342.87443	57.62930	85.91715	-1060.63337	-103.97504	552.17799	-1126.85272	-158.25361	477.96081	-1273.25081	-128.52542	130.57167	-1242.86092	-52.49966	131.04859	-1324.47763	-84.44753	130.99345	-1217.18605	-122.67891	109.17423	-1218.63375	155.17597	624.80399	-1306.18107	160.95625	302.78744	-1170.87854	-228.68130	646.35430	-1220.43499	-209.62292	355.50477	
